<svg width="360" height="800" viewBox="0 0 360 800" fill="none" xmlns="http://www.w3.org/2000/svg">
<g clip-path="url(#clip0_52379_1998)">
<rect width="360" height="800" fill="#A7A2A2"/>
<rect x="-14" y="-50" width="374" height="436" fill="#BFD5FF"/>
<path d="M125.675 46C1.93729 -71.0378 63.5 -49.4998 0.5 -49.5V358.067H382.459V310.017C355.592 302.267 333.712 257.926 331.309 218.567C327.175 150.883 357.659 112.133 293.075 108C228.492 103.867 201.109 99.7334 125.675 46Z" fill="#C7DAFF"/>
<path d="M97.9591 85.0671C40 43.781 -70.4184 -39.4329 -13.5408 85.0671L-20 576L359 604C405.673 589.321 531.5 393.944 346.459 340.567C320.459 333.067 299.285 290.157 296.959 252.068C292.959 186.568 322.459 149.067 259.959 145.067C197.459 141.067 170.959 137.067 97.9591 85.0671Z" fill="#CEDFFF"/>
<path d="M-18.5411 181.567L-89.854 112.271L-13.8442 671L4.9581e-06 749.5L361 749.5C363.844 702 362.344 619.5 360.5 607C383.643 588.645 158.035 539.874 144.345 516.437C130.554 493.155 145.963 448.521 168.959 418.067C205.959 369.067 100.459 319.567 56.4589 307.567C12.4589 295.567 -1.0256 269.466 -18.5411 181.567Z" fill="#D6E4FF"/>
<rect y="748" width="360" height="52" fill="#D6E4FF"/>
</g>
<defs>
<clipPath id="clip0_52379_1998">
<rect width="360" height="800" fill="white"/>
</clipPath>
</defs>
</svg>
