<svg width="360" height="800" viewBox="0 0 360 800" fill="none" xmlns="http://www.w3.org/2000/svg">
<g clip-path="url(#clip0_52327_1188)">
<rect width="360" height="800" fill="#A7A2A2"/>
<rect x="-14" width="374" height="436" fill="#ADB5FE"/>
<path d="M125.675 96C1.93729 -21.0378 63.5 0.500238 0.5 0.5V408.067H382.459V360.017C355.592 352.267 333.712 307.926 331.309 268.567C327.175 200.883 357.659 162.133 293.075 158C228.492 153.867 201.109 149.733 125.675 96Z" fill="#B5BCFF"/>
<path d="M97.9591 135.067C40 93.781 -70.4184 10.5671 -13.5408 135.067L-20 626L359 654C405.673 639.321 531.5 443.944 346.459 390.567C320.459 383.067 299.285 340.157 296.959 302.068C292.959 236.568 322.459 199.067 259.959 195.067C197.459 191.067 170.959 187.067 97.9591 135.067Z" fill="#BDC3FF"/>
<path d="M-18.5411 231.567L-89.854 162.271L-13.8442 721L4.9581e-06 799.5L359.5 799.5C362.344 752 361.344 669.5 359.5 657C382.643 638.645 158.035 589.874 144.345 566.437C130.554 543.155 145.963 498.521 168.959 468.067C205.959 419.067 100.459 369.567 56.4589 357.567C12.4589 345.567 -1.0256 319.466 -18.5411 231.567Z" fill="#C1C7FF"/>
</g>
<defs>
<clipPath id="clip0_52327_1188">
<rect width="360" height="800" fill="white"/>
</clipPath>
</defs>
</svg>
