<svg width="161" height="171" viewBox="0 0 161 171" fill="none" xmlns="http://www.w3.org/2000/svg">
<path d="M1.50679 39.422C-0.0801047 35.183 2.06988 30.4602 6.30891 28.8733C10.5479 27.2864 15.2708 29.4364 16.8577 33.6754L37.756 89.5007C39.3429 93.7397 37.1929 98.4625 32.9539 100.049C28.7149 101.636 23.992 99.4863 22.4051 95.2473L1.50679 39.422Z" fill="white"/>
<path d="M160.512 39.7656C162.022 35.7339 159.977 31.2421 155.945 29.7328C151.913 28.2235 147.421 30.2683 145.912 34.3L124.733 90.8761C123.224 94.9078 125.268 99.3997 129.3 100.909C133.332 102.418 137.824 100.373 139.333 96.3417L160.512 39.7656Z" fill="white"/>
<path d="M0.999921 37C0.999921 16.5655 16.2325 0 35.0229 0H126.977C145.767 0 161 16.5655 161 37H0.999921Z" fill="white"/>
<path fill-rule="evenodd" clip-rule="evenodd" d="M161 87H0.999921V161C0.999921 166.523 5.47707 171 10.9999 171H151C156.523 171 161 166.523 161 161V87ZM85.1382 115.994C88.0265 114.496 89.9999 111.478 89.9999 108C89.9999 103.029 85.9705 99 80.9999 99C76.0294 99 71.9999 103.029 71.9999 108C71.9999 111.479 73.9736 114.497 76.8623 115.995V124.861C76.8623 127.146 78.7149 128.999 81.0002 128.999C83.2856 128.999 85.1382 127.146 85.1382 124.861V115.994Z" fill="white"/>
</svg>
