<svg width="160" height="133" viewBox="0 0 160 133" fill="none" xmlns="http://www.w3.org/2000/svg">
<path d="M0 37C0 16.5655 15.2326 0 34.023 0H125.977C144.767 0 160 16.5655 160 37H0Z" fill="white"/>
<path fill-rule="evenodd" clip-rule="evenodd" d="M0 49H160V123C160 128.523 155.523 133 150 133H10C4.47715 133 0 128.523 0 123V49ZM84.1384 77.9942C87.0267 76.496 89 73.4784 89 70C89 65.0294 84.9706 61 80 61C75.0294 61 71 65.0294 71 70C71 73.4788 72.9738 76.4966 75.8625 77.9947V86.8613C75.8625 89.1467 77.7152 90.9993 80.0005 90.9993C82.2858 90.9993 84.1384 89.1467 84.1384 86.8613V77.9942Z" fill="white"/>
<path d="M154.652 32H5.34837C7.54644 16.419 19.8573 5 34.023 5H125.977C140.143 5 152.454 16.419 154.652 32ZM5 54H155V123C155 125.761 152.761 128 150 128H10C7.23858 128 5 125.761 5 123V54ZM89.1384 80.6054C92.1107 78.0419 94 74.2441 94 70C94 62.268 87.732 56 80 56C72.268 56 66 62.268 66 70C66 74.2446 67.8897 78.0427 70.8625 80.6062V86.8613C70.8625 91.9081 74.9537 95.9993 80.0005 95.9993C85.0472 95.9993 89.1384 91.9081 89.1384 86.8613V80.6054Z" stroke="white" stroke-width="10"/>
</svg>
